HIERARCHY
ROOT Root
{
  OFFSET 0.0 0.0 0.0
  CHANNELS 6 Xposition Yposition Zposition Zrotation Yrotation Xrotation
  JOINT Hips
  {
    OFFSET 0.0 100.0 0.0
    CHANNELS 6 Xposition Yposition Zposition Zrotation Yrotation Xrotation
    JOINT Spine1
    {
      OFFSET -0.013727 5.003763 -0.053727
      CHANNELS 3 Zrotation Yrotation Xrotation
      JOINT Spine2
      {
        OFFSET -0.0 7.125301 -0.029825
        CHANNELS 3 Zrotation Yrotation Xrotation
        JOINT Chest
        {
          OFFSET -1e-06 7.550063 -0.815971
          CHANNELS 3 Zrotation Yrotation Xrotation
          JOINT Neck1
          {
            OFFSET -0.181677 26.311295 -0.553348
            CHANNELS 3 Zrotation Yrotation Xrotation
            JOINT Neck2
            {
              OFFSET -3e-06 7.709397 2.302585
              CHANNELS 3 Zrotation Yrotation Xrotation
              JOINT Head
              {
                OFFSET -5e-06 6.128916 1.953709
                CHANNELS 3 Zrotation Yrotation Xrotation
                JOINT HeadEnd
                {
                  OFFSET 0.003598 16.065403 -1.835379
                  CHANNELS 3 Zrotation Yrotation Xrotation
                }
                JOINT Jaw
                {
                  OFFSET 0.002637 0.475592 3.094941
                  CHANNELS 3 Zrotation Yrotation Xrotation
                }
                JOINT LeftEye
                {
                  OFFSET 3.206381 5.380205 7.586883
                  CHANNELS 3 Zrotation Yrotation Xrotation
                }
                JOINT RightEye
                {
                  OFFSET -3.22244 5.361869 7.558234
                  CHANNELS 3 Zrotation Yrotation Xrotation
                }
              }
            }
          }
          JOINT LeftShoulder
          {
            OFFSET 1.621652 23.237164 5.113413
            CHANNELS 3 Zrotation Yrotation Xrotation
            JOINT LeftArm
            {
              OFFSET 14.919846 2e-06 -5.502326
              CHANNELS 3 Zrotation Yrotation Xrotation
              JOINT LeftForeArm
              {
                OFFSET 28.739307 0.0 -0.002588
                CHANNELS 3 Zrotation Yrotation Xrotation
                JOINT LeftHand
                {
                  OFFSET 27.093981 -1e-06 0.002609
                  CHANNELS 3 Zrotation Yrotation Xrotation
                  JOINT LeftHandThumb1
                  {
                    OFFSET 2.276482 -1.392045 3.191413
                    CHANNELS 3 Zrotation Yrotation Xrotation
                    JOINT LeftHandThumb2
                    {
                      OFFSET 4.012836 -1.828127 1.641654
                      CHANNELS 3 Zrotation Yrotation Xrotation
                      JOINT LeftHandThumb3
                      {
                        OFFSET 2.798515 0.0 -3e-06
                        CHANNELS 3 Zrotation Yrotation Xrotation
                        JOINT LeftHandThumbEnd
                        {
                          OFFSET 3.180793 -4e-06 4e-06
                          CHANNELS 3 Zrotation Yrotation Xrotation
                        }
                      }
                    }
                  }
                  JOINT LeftHandIndex1
                  {
                    OFFSET 3.247555 -0.531998 2.296169
                    CHANNELS 3 Zrotation Yrotation Xrotation
                    JOINT LeftHandIndex2
                    {
                      OFFSET 6.364578 0.01206 0.1786
                      CHANNELS 3 Zrotation Yrotation Xrotation
                      JOINT LeftHandIndex3
                      {
                        OFFSET 3.662364 0.0 0.0
                        CHANNELS 3 Zrotation Yrotation Xrotation
                        JOINT LeftHandIndex4
                        {
                          OFFSET 2.329242 4e-06 4e-06
                          CHANNELS 3 Zrotation Yrotation Xrotation
                          JOINT LeftHandIndexEnd
                          {
                            OFFSET 2.759615 -0.180537 -0.113024
                            CHANNELS 3 Zrotation Yrotation Xrotation
                          }
                        }
                      }
                    }
                  }
                  JOINT LeftHandMiddle1
                  {
                    OFFSET 3.163495 0.240981 1.000332
                    CHANNELS 3 Zrotation Yrotation Xrotation
                    JOINT LeftHandMiddle2
                    {
                      OFFSET 6.19078 -0.259278 -1.002548
                      CHANNELS 3 Zrotation Yrotation Xrotation
                      JOINT LeftHandMiddle3
                      {
                        OFFSET 4.35652 -4e-06 -1e-06
                        CHANNELS 3 Zrotation Yrotation Xrotation
                        JOINT LeftHandMiddle4
                        {
                          OFFSET 2.996877 -8e-06 0.0
                          CHANNELS 3 Zrotation Yrotation Xrotation
                          JOINT LeftHandMiddleEnd
                          {
                            OFFSET 2.304287 -0.294569 -0.031741
                            CHANNELS 3 Zrotation Yrotation Xrotation
                          }
                        }
                      }
                    }
                  }
                  JOINT LeftHandRing1
                  {
                    OFFSET 2.882643 -0.053652 -0.322543
                    CHANNELS 3 Zrotation Yrotation Xrotation
                    JOINT LeftHandRing2
                    {
                      OFFSET 5.854541 -0.486202 -1.373841
                      CHANNELS 3 Zrotation Yrotation Xrotation
                      JOINT LeftHandRing3
                      {
                        OFFSET 4.350578 0.0 3e-06
                        CHANNELS 3 Zrotation Yrotation Xrotation
                        JOINT LeftHandRing4
                        {
                          OFFSET 2.651321 7e-06 2e-06
                          CHANNELS 3 Zrotation Yrotation Xrotation
                          JOINT LeftHandRingEnd
                          {
                            OFFSET 1.936105 0.077687 -7.1e-05
                            CHANNELS 3 Zrotation Yrotation Xrotation
                          }
                        }
                      }
                    }
                  }
                  JOINT LeftHandPinky1
                  {
                    OFFSET 2.8655 -0.310005 -1.600378
                    CHANNELS 3 Zrotation Yrotation Xrotation
                    JOINT LeftHandPinky2
                    {
                      OFFSET 5.087849 -1.331141 -1.77123
                      CHANNELS 3 Zrotation Yrotation Xrotation
                      JOINT LeftHandPinky3
                      {
                        OFFSET 3.070974 4e-06 0.0
                        CHANNELS 3 Zrotation Yrotation Xrotation
                        JOINT LeftHandPinky4
                        {
                          OFFSET 1.549672 0.0 1e-06
                          CHANNELS 3 Zrotation Yrotation Xrotation
                          JOINT LeftHandPinkyEnd
                          {
                            OFFSET 1.944893 -0.157802 0.057219
                            CHANNELS 3 Zrotation Yrotation Xrotation
                          }
                        }
                      }
                    }
                  }
                }
              }
            }
          }
          JOINT RightShoulder
          {
            OFFSET -1.380118 23.180309 5.214158
            CHANNELS 3 Zrotation Yrotation Xrotation
            JOINT RightArm
            {
              OFFSET -15.037196 1.2e-05 -5.545604
              CHANNELS 3 Zrotation Yrotation Xrotation
              JOINT RightForeArm
              {
                OFFSET -28.736639 2e-06 -0.002597
                CHANNELS 3 Zrotation Yrotation Xrotation
                JOINT RightHand
                {
                  OFFSET -27.133619 -0.0 0.002613
                  CHANNELS 3 Zrotation Yrotation Xrotation
                  JOINT RightHandThumb1
                  {
                    OFFSET -2.274032 -1.383988 3.163127
                    CHANNELS 3 Zrotation Yrotation Xrotation
                    JOINT RightHandThumb2
                    {
                      OFFSET -4.011429 -1.827466 1.640914
                      CHANNELS 3 Zrotation Yrotation Xrotation
                      JOINT RightHandThumb3
                      {
                        OFFSET -2.794935 -4e-06 -3e-06
                        CHANNELS 3 Zrotation Yrotation Xrotation
                        JOINT RightHandThumbEnd
                        {
                          OFFSET -3.183852 4e-06 1e-06
                          CHANNELS 3 Zrotation Yrotation Xrotation
                        }
                      }
                    }
                  }
                  JOINT RightHandIndex1
                  {
                    OFFSET -3.253266 -0.520057 2.282866
                    CHANNELS 3 Zrotation Yrotation Xrotation
                    JOINT RightHandIndex2
                    {
                      OFFSET -6.341917 0.012471 0.178266
                      CHANNELS 3 Zrotation Yrotation Xrotation
                      JOINT RightHandIndex3
                      {
                        OFFSET -3.654871 -8e-06 -0.0
                        CHANNELS 3 Zrotation Yrotation Xrotation
                        JOINT RightHandIndex4
                        {
                          OFFSET -2.327586 0.0 1e-06
                          CHANNELS 3 Zrotation Yrotation Xrotation
                          JOINT RightHandIndexEnd
                          {
                            OFFSET -2.76179 -0.180656 -0.113078
                            CHANNELS 3 Zrotation Yrotation Xrotation
                          }
                        }
                      }
                    }
                  }
                  JOINT RightHandMiddle1
                  {
                    OFFSET -3.168106 0.246593 1.00103
                    CHANNELS 3 Zrotation Yrotation Xrotation
                    JOINT RightHandMiddle2
                    {
                      OFFSET -6.180828 -0.258836 -1.000895
                      CHANNELS 3 Zrotation Yrotation Xrotation
                      JOINT RightHandMiddle3
                      {
                        OFFSET -4.348901 0.0 -0.0
                        CHANNELS 3 Zrotation Yrotation Xrotation
                        JOINT RightHandMiddle4
                        {
                          OFFSET -3.00024 -4e-06 -2e-06
                          CHANNELS 3 Zrotation Yrotation Xrotation
                          JOINT RightHandMiddleEnd
                          {
                            OFFSET -2.30252 -0.29437 -0.031706
                            CHANNELS 3 Zrotation Yrotation Xrotation
                          }
                        }
                      }
                    }
                  }
                  JOINT RightHandRing1
                  {
                    OFFSET -2.88569 -0.067952 -0.308858
                    CHANNELS 3 Zrotation Yrotation Xrotation
                    JOINT RightHandRing2
                    {
                      OFFSET -5.854198 -0.48613 -1.373731
                      CHANNELS 3 Zrotation Yrotation Xrotation
                      JOINT RightHandRing3
                      {
                        OFFSET -4.33881 -4e-06 -0.0
                        CHANNELS 3 Zrotation Yrotation Xrotation
                        JOINT RightHandRing4
                        {
                          OFFSET -2.654903 -4e-06 4e-06
                          CHANNELS 3 Zrotation Yrotation Xrotation
                          JOINT RightHandRingEnd
                          {
                            OFFSET -1.933568 0.077527 -5.2e-05
                            CHANNELS 3 Zrotation Yrotation Xrotation
                          }
                        }
                      }
                    }
                  }
                  JOINT RightHandPinky1
                  {
                    OFFSET -2.866425 -0.342796 -1.584145
                    CHANNELS 3 Zrotation Yrotation Xrotation
                    JOINT RightHandPinky2
                    {
                      OFFSET -5.091371 -1.332055 -1.772385
                      CHANNELS 3 Zrotation Yrotation Xrotation
                      JOINT RightHandPinky3
                      {
                        OFFSET -3.062664 -4e-06 1e-06
                        CHANNELS 3 Zrotation Yrotation Xrotation
                        JOINT RightHandPinky4
                        {
                          OFFSET -1.546529 4e-06 -2e-06
                          CHANNELS 3 Zrotation Yrotation Xrotation
                          JOINT RightHandPinkyEnd
                          {
                            OFFSET -1.945119 -0.157718 0.057211
                            CHANNELS 3 Zrotation Yrotation Xrotation
                          }
                        }
                      }
                    }
                  }
                }
              }
            }
          }
        }
      }
    }
    JOINT LeftLeg
    {
      OFFSET 10.043214 -8.434526 2.595655
      CHANNELS 3 Zrotation Yrotation Xrotation
      JOINT LeftShin
      {
        OFFSET -1e-06 -43.221752 -0.802913
        CHANNELS 3 Zrotation Yrotation Xrotation
        JOINT LeftFoot
        {
          OFFSET 1e-06 -42.155094 -3.481523
          CHANNELS 3 Zrotation Yrotation Xrotation
          JOINT LeftToeBase
          {
            OFFSET 0.0 -5.059472 13.231529
            CHANNELS 3 Zrotation Yrotation Xrotation
            JOINT LeftToeEnd
            {
              OFFSET -0.009607 -1.647619 6.513017
              CHANNELS 3 Zrotation Yrotation Xrotation
            }
          }
        }
      }
    }
    JOINT RightLeg
    {
      OFFSET -10.047278 -8.29526 2.620317
      CHANNELS 3 Zrotation Yrotation Xrotation
      JOINT RightShin
      {
        OFFSET 1e-06 -43.362206 -0.805556
        CHANNELS 3 Zrotation Yrotation Xrotation
        JOINT RightFoot
        {
          OFFSET 2e-06 -42.117393 -3.478398
          CHANNELS 3 Zrotation Yrotation Xrotation
          JOINT RightToeBase
          {
            OFFSET -0.0 -5.079609 13.284196
            CHANNELS 3 Zrotation Yrotation Xrotation
            JOINT RightToeEnd
            {
              OFFSET 0.009532 -1.634378 6.460591
              CHANNELS 3 Zrotation Yrotation Xrotation
            }
          }
        }
      }
    }
  }
}
MOTION
Frames: 4
Frame Time: 0.03333333333333333
0.0 0.0 0.0 0.0 -0.0 0.0 1.767307 112.238571 3.588206 3.684554 4.567761 -1.274598 -6.485096 3.336821 14.905621 -3.729812 4.918468 2.905936 -17.817331 4.503233 26.603836 -5.65977 13.382088 35.274136 -0.816429 -6.986817 -3.102747 -0.242369 -8.548398 1.726632 7.6e-05 -2.3e-05 5e-06 0.115288 -0.241889 -0.091539 0.957329 -3.943617 -10.596964 -0.747176 3.442862 -10.575234 -13.175677 9.035365 8.962036 -50.845684 9.177807 -2.259929 3.259238 -23.715 0.433023 1.644208 12.422521 -48.083042 -5.882107 9.861284 0.702591 -10.936873 -0.360574 7.156205 1e-06 8.774825 0.0 -11.831409 18.007471 9.110189 -1.844032 2.498504 -2.507278 -10.163601 4.678944 4.621108 -20.976027 -5e-06 -0.0 -21.226288 2.451696 -3.594001 -0.0 -4e-06 -1e-06 -1.362681 2.240799 -0.746326 -21.334917 0.584909 3.008324 -13.821217 -3e-06 2e-06 -23.887175 -0.249081 -0.839484 -58.85503 2.604252 -1.249557 -0.294025 1.679688 0.833258 -14.218211 0.093215 1.30058 -34.212055 -0.287566 0.967169 -20.033215 0.964535 1.212844 -0.0 0.0 1e-06 -3.44039 0.788233 0.501658 -15.928187 -3.167312 2.999706 -6.338828 -1e-06 1e-06 -18.123447 3.648182 -4.905673 -4e-06 1e-06 -2e-06 -1.32693 13.271394 10.198113 9.987139 -15.742092 -15.965919 0.620255 35.40773 2.556148 -18.868362 5.534009 -16.79018 2.243544 -5.255041 -3.180162 14.282902 -0.826595 6.952511 0.0 -12.69061 -1e-06 16.803223 -15.053473 3.724384 1.665667 -1.955924 -2.8783 4.727804 -4.17059 4.993928 11.020534 2e-06 -1e-06 12.10906 -3.73572 -2.866785 1e-06 -1e-06 -0.0 1.291986 -1.928549 -1.498088 14.800139 0.567467 3.865613 14.24258 -1.341738 -6.660663 19.631979 0.143921 -0.648245 51.637573 -0.688985 -5.31041 0.353029 -1.511152 -0.03194 20.222805 3.684308 2.316633 18.787289 1e-06 0.0 10.751637 -0.47987 1.397907 -1e-06 2e-06 -1e-06 3.273809 0.305947 -0.58011 21.486832 11.830379 2.266138 8.162937 1e-06 1e-06 18.399099 -3.79899 -4.940579 3e-06 1e-06 -1e-06 -2.610866 -8.713015 -59.12899 -0.163748 -0.033319 85.258377 -6.643174 6.669369 -23.653053 1.698468 -1.91827 -1.43665 -0.0 0.0 2e-06 -8.717673 -20.920164 -23.163303 0.342998 0.159464 96.773582 14.671458 -6.667926 45.323349 -1.650207 0.989547 -5.344168 -0.0 -0.0 -1e-06 
0.0 0.0 0.0 0.0 -0.0 0.0 1.443466 114.341209 5.084356 2.916136 8.069933 -0.787293 -6.448155 3.076201 15.55712 -3.509026 4.224485 3.21243 -16.858679 3.694171 26.649057 -4.998147 12.618096 35.009544 -0.917291 -6.711863 -3.107462 -0.904346 -9.032153 1.092835 7.6e-05 -2.3e-05 6e-06 0.071615 -0.239356 -0.098095 0.896176 -3.954499 -10.618876 -0.769338 3.452681 -10.59951 -10.550759 8.149684 9.31755 -48.442978 9.702044 -1.293118 3.621914 -24.641176 0.303455 2.021832 12.264368 -46.643887 -5.882113 9.861293 0.702591 -10.93688 -0.360575 7.156208 1e-06 8.774831 -1e-06 -12.106957 18.218525 9.133014 -1.844034 2.498507 -2.507279 -10.163608 4.678949 4.621109 -20.97604 -3e-06 2e-06 -21.226303 2.4517 -3.594002 -0.0 -6e-06 -1e-06 -1.362682 2.240799 -0.746321 -21.33493 0.584911 3.008326 -13.821225 -2e-06 2e-06 -23.887188 -0.249077 -0.839484 -59.203747 2.828035 -1.470377 -0.294026 1.679688 0.833256 -14.218221 0.093215 1.300581 -34.212082 -0.287562 0.967171 -20.03323 0.964537 1.212845 -0.0 0.0 1e-06 -3.44039 0.788235 0.501655 -15.928201 -3.167312 2.999708 -6.338832 -1e-06 1e-06 -18.123463 3.648185 -4.905672 -4e-06 0.0 -1e-06 -0.844028 12.588641 9.725534 11.622079 -13.912397 -16.013092 -1.447155 41.7258 2.656122 -18.146473 6.181691 -20.725206 2.243544 -5.255042 -3.180161 14.282908 -0.826597 6.952513 -2e-06 -12.690614 -1e-06 16.72113 -15.448923 3.721962 1.665668 -1.955923 -2.878304 4.727805 -4.170591 4.993928 11.020542 1e-06 -1e-06 12.109068 -3.735718 -2.866788 -0.0 -3e-06 -1e-06 1.291986 -1.928553 -1.49809 14.800146 0.567467 3.865613 14.242587 -1.34174 -6.660666 19.631989 0.143923 -0.648246 51.424713 -0.659612 -5.511262 0.353029 -1.511151 -0.03194 20.222816 3.68431 2.316635 18.787296 3e-06 -1e-06 10.751639 -0.47987 1.397908 1e-06 0.0 2e-06 3.273811 0.305946 -0.58011 21.486841 11.830384 2.266139 8.162937 1e-06 -0.0 18.399109 -3.798988 -4.940581 2e-06 -0.0 -0.0 -1.953684 -9.969107 -56.975216 -0.23415 -0.102152 84.038048 -6.595802 4.260752 -24.717268 1.70952 -1.981681 -1.197376 -0.0 0.0 2e-06 -8.739619 -21.310785 -25.010113 0.382661 0.204885 98.498856 11.94913 -7.260005 37.317738 -1.558302 0.966852 -4.065938 0.0 0.0 -1e-06 
0.0 0.0 0.0 0.0 -0.0 0.0 0.932456 115.772751 7.880474 2.120796 11.087543 -0.586864 -6.336988 2.920557 15.91894 -3.317271 3.675354 3.222848 -15.558686 3.250621 26.659531 -3.946139 11.571823 34.835022 -1.321251 -6.563863 -3.158158 -1.59732 -9.241029 0.355057 7.7e-05 -2.4e-05 6e-06 0.058598 -0.222347 -0.083602 0.87025 -3.93631 -10.60384 -0.768283 3.467658 -10.61035 -7.677992 7.356316 9.837523 -45.673172 10.352205 -0.191169 3.730775 -25.99744 0.419986 3.440728 11.959485 -45.674744 -5.882103 9.861286 0.702592 -10.936872 -0.360576 7.156204 3e-06 8.774828 1e-06 -12.763272 18.324429 8.696446 -1.844032 2.498504 -2.507279 -10.163601 4.678943 4.621111 -20.976023 -9e-06 1e-06 -21.226286 2.451693 -3.593997 0.0 -8e-06 -1e-06 -1.36268 2.2408 -0.746323 -21.334915 0.584904 3.008322 -13.821215 -6e-06 2e-06 -23.887171 -0.249083 -0.839481 -59.474537 3.086699 -1.68144 -0.294024 1.679687 0.833258 -14.218212 0.093211 1.300581 -34.212051 -0.287572 0.967173 -20.033215 0.964535 1.212846 -0.0 2e-06 2e-06 -3.440389 0.788233 0.501655 -15.928191 -3.167314 2.999707 -6.338828 -1e-06 -1e-06 -18.123447 3.64818 -4.905666 -5e-06 1e-06 -1e-06 -0.462768 12.512632 9.716746 12.399877 -11.188401 -13.78334 -3.545169 43.309273 2.061132 -16.748045 5.746934 -23.246902 2.243541 -5.255038 -3.180159 14.282898 -0.826598 6.952508 -1e-06 -12.690605 2e-06 16.800087 -15.74538 3.469041 1.665666 -1.955922 -2.8783 4.727802 -4.170588 4.993927 11.020529 1e-06 2e-06 12.109056 -3.735719 -2.866782 -1e-06 1e-06 -0.0 1.291987 -1.92855 -1.49809 14.800134 0.567467 3.865612 14.242579 -1.341739 -6.660657 19.631973 0.143923 -0.648243 51.464211 -0.578428 -5.795473 0.353029 -1.511151 -0.03194 20.222803 3.684309 2.316636 18.787287 1e-06 2e-06 10.751636 -0.479871 1.397908 1e-06 1e-06 -0.0 3.273808 0.305946 -0.580111 21.486834 11.830376 2.26614 8.162934 0.0 1e-06 18.399094 -3.798988 -4.940575 3e-06 1e-06 -1e-06 -1.115131 -11.455604 -54.321716 -0.35606 -0.222912 82.349693 -6.605944 2.202909 -25.60214 1.726679 -2.030492 -1.089851 -0.0 0.0 2e-06 -8.529194 -21.422384 -26.367985 0.457015 0.294756 99.153069 9.508857 -9.025836 26.333511 -1.497521 0.935924 -3.483832 -0.0 0.0 -1e-06 
0.0 0.0 0.0 0.0 -0.0 0.0 0.659136 116.762283 10.537004 1.376986 13.212678 -0.679593 -6.103694 2.817651 16.023949 -3.222752 3.349171 3.093432 -14.423219 3.048872 26.745436 -3.063776 10.651644 34.363934 -1.760405 -6.424847 -3.202246 -2.064306 -9.183267 -0.55643 7.5e-05 -2.4e-05 5e-06 0.058958 -0.219067 -0.063836 0.871296 -3.932348 -10.560537 -0.768768 3.473923 -10.608891 -5.393042 6.688636 10.209442 -42.305012 11.531374 1.094168 3.944222 -27.332027 0.357318 4.819761 12.045805 -45.228161 -5.88211 9.861288 0.702591 -10.936877 -0.360575 7.156208 0.0 8.774828 -1e-06 -13.312033 18.479649 8.339408 -1.844034 2.498504 -2.507279 -10.163605 4.678948 4.621109 -20.976034 -3e-06 1e-06 -21.226299 2.451698 -3.594001 -0.0 -6e-06 -1e-06 -1.362682 2.240799 -0.746323 -21.334925 0.584909 3.008323 -13.821219 -3e-06 1e-06 -23.88718 -0.249079 -0.839482 -59.77895 3.356007 -1.89581 -0.294026 1.679689 0.833258 -14.218215 0.093214 1.30058 -34.212067 -0.287565 0.967169 -20.033226 0.964536 1.212844 -0.0 1e-06 -1e-06 -3.44039 0.788234 0.501655 -15.928192 -3.16731 2.999707 -6.338829 -1e-06 0.0 -18.123453 3.648183 -4.905671 -4e-06 1e-06 -2e-06 -0.070715 13.088969 9.832094 12.021089 -7.855353 -10.217991 -4.554693 40.870705 1.767652 -15.494948 3.578574 -23.685394 2.243542 -5.255038 -3.18016 14.282896 -0.826596 6.952507 -2e-06 -12.690607 0.0 16.892517 -15.966531 3.241929 1.665667 -1.955921 -2.878299 4.727802 -4.17059 4.993927 11.020531 1e-06 -1e-06 12.109057 -3.735716 -2.866784 0.0 0.0 -1e-06 1.291987 -1.92855 -1.49809 14.800136 0.567468 3.865611 14.242579 -1.341738 -6.66066 19.631975 0.143926 -0.648244 51.362232 -0.553775 -6.027208 0.353029 -1.511152 -0.03194 20.222801 3.68431 2.316633 18.787287 3e-06 1e-06 10.751634 -0.47987 1.397907 0.0 1e-06 -0.0 3.273808 0.305946 -0.58011 21.48682 11.830378 2.266136 8.16293 2e-06 0.0 18.399092 -3.798987 -4.940577 4e-06 1e-06 -1e-06 -0.300533 -12.733015 -51.631493 -0.450912 -0.318519 81.07061 -6.683058 1.320813 -26.19882 1.748454 -2.08321 -1.044127 -0.0 0.0 2e-06 -8.081565 -21.154461 -27.479191 0.487113 0.292335 98.488327 7.312617 -12.183855 16.151777 -1.546358 0.924298 -3.172036 -0.0 -0.0 -1e-06 
